<svg id="Layer_1" data-name="Layer 1" xmlns="http://www.w3.org/2000/svg" xmlns:xlink="http://www.w3.org/1999/xlink" viewBox="0 0 24 24"><defs><style>.cls-1{fill:url(#linear-gradient);}</style><linearGradient id="linear-gradient" x1="3.86" y1="21.98" x2="24.2" y2="9.24" gradientUnits="userSpaceOnUse"><stop offset="0.19" stop-color="#5851db"/><stop offset="0.37" stop-color="#833ab4"/><stop offset="0.58" stop-color="#c13584"/><stop offset="0.77" stop-color="#e1306c"/><stop offset="1" stop-color="#fd1d1d"/></linearGradient></defs><title>insta-color</title><path class="cls-1" d="M10,3a7,7,0,0,0-7,7V20a7,7,0,0,0,7,7H20a7,7,0,0,0,7-7V10a7,7,0,0,0-7-7ZM22,7a1,1,0,1,1-1,1A1,1,0,0,1,22,7ZM15,9a6,6,0,1,1-6,6A6,6,0,0,1,15,9Zm0,2a4,4,0,1,0,4,4A4,4,0,0,0,15,11Z" transform="translate(-3 -3)"/></svg>