<svg id="Layer_1" data-name="Layer 1" xmlns="http://www.w3.org/2000/svg" viewBox="0 0 24 24"><defs><style>.cls-1{fill:none;}.cls-2{fill:#00c647;}</style></defs><title>whatsapp-color</title><rect class="cls-1" width="24" height="24"/><path class="cls-2" d="M19.05,4.91A9.82,9.82,0,0,0,12,2,9.92,9.92,0,0,0,3.45,16.86L2.05,22,7.3,20.62A9.91,9.91,0,0,0,12,21.83h0a9.91,9.91,0,0,0,7-16.92ZM12,20.15h0A8.26,8.26,0,0,1,7.84,19l-.3-.18-3.12.82.83-3-.2-.31A8.24,8.24,0,0,1,12,3.67a8.24,8.24,0,0,1,0,16.48ZM16.56,14c-.25-.12-1.47-.72-1.69-.81s-.39-.12-.56.12-.64.81-.78,1-.29.19-.54.06a6.66,6.66,0,0,1-2-1.23,7.57,7.57,0,0,1-1.38-1.72c-.14-.25,0-.38.11-.51s.25-.29.37-.43a1.73,1.73,0,0,0,.25-.41.46.46,0,0,0,0-.43c-.06-.12-.56-1.34-.76-1.84S9.16,7.34,9,7.33H8.53a.9.9,0,0,0-.66.31A2.82,2.82,0,0,0,7,9.71a4.82,4.82,0,0,0,1,2.56A11,11,0,0,0,12.25,16a12.1,12.1,0,0,0,1.41.52,3.43,3.43,0,0,0,1.56.1,2.52,2.52,0,0,0,1.67-1.18A2,2,0,0,0,17,14.27C17,14.16,16.81,14.11,16.56,14Z"/></svg>